<svg version="1.2" xmlns="http://www.w3.org/2000/svg" viewBox="0 0 900 600" width="900" height="600">
	<title>bg_blurry_gradient_form1-svg</title>
	<style>
		.s0 { fill: #fffee4 } 
		.s1 { fill: #debace } 
		.s2 { fill: #caa3c0 } 
		.s3 { fill: #b38db3 } 
		.s4 { fill: #9a79a8 } 
		.s5 { fill: #7f669d } 
	</style>
	<path id="Layer" class="s0" d="m0 0h900v600h-900z"/>
	<path id="Layer" class="s1" d="m0 389l21.5 5.8c21.5 5.9 64.5 17.5 107.3 12.4 42.9-5.2 85.5-27.2 128.4-35 42.8-7.9 85.8-1.5 128.6 12.3 42.9 13.8 85.5 35.2 128.4 35 42.8-0.2 85.8-21.8 128.6-30.3 42.9-8.5 85.5-3.9 128.4-0.2 42.8 3.7 85.8 6.3 107.3 7.7l21.5 1.3v203h-21.5c-21.5 0-64.5 0-107.3 0-42.9 0-85.5 0-128.4 0-42.8 0-85.8 0-128.6 0-42.9 0-85.5 0-128.4 0-42.8 0-85.8 0-128.6 0-42.9 0-85.5 0-128.4 0-42.8 0-85.8 0-107.3 0h-21.5z"/>
	<path id="Layer" class="s2" d="m0 436l21.5-6.8c21.5-6.9 64.5-20.5 107.3-20.7 42.9-0.2 85.5 13.2 128.4 17.2 42.8 4 85.8-1.4 128.6 3.3 42.9 4.7 85.5 19.3 128.4 24.2 42.8 4.8 85.8-0.2 128.6-9 42.9-8.9 85.5-21.5 128.4-27.7 42.8-6.2 85.8-5.8 107.3-5.7l21.5 0.2v190h-21.5c-21.5 0-64.5 0-107.3 0-42.9 0-85.5 0-128.4 0-42.8 0-85.8 0-128.6 0-42.9 0-85.5 0-128.4 0-42.8 0-85.8 0-128.6 0-42.9 0-85.5 0-128.4 0-42.8 0-85.8 0-107.3 0h-21.5z"/>
	<path id="Layer" class="s3" d="m0 449l21.5 6c21.5 6 64.5 18 107.3 16.7 42.9-1.4 85.5-16 128.4-13.5 42.8 2.5 85.8 22.1 128.6 29.1 42.9 7 85.5 1.4 128.4-6.1 42.8-7.5 85.8-16.9 128.6-21.4 42.9-4.5 85.5-4.1 128.4-0.1 42.8 4 85.8 11.6 107.3 15.5l21.5 3.8v122h-21.5c-21.5 0-64.5 0-107.3 0-42.9 0-85.5 0-128.4 0-42.8 0-85.8 0-128.6 0-42.9 0-85.5 0-128.4 0-42.8 0-85.8 0-128.6 0-42.9 0-85.5 0-128.4 0-42.8 0-85.8 0-107.3 0h-21.5z"/>
	<path id="Layer" class="s4" d="m0 506l21.5-3.2c21.5-3.1 64.5-9.5 107.3-11.1 42.9-1.7 85.5 1.3 128.4 3 42.8 1.6 85.8 2 128.6 3.3 42.9 1.3 85.5 3.7 128.4 5.5 42.8 1.8 85.8 3.2 128.6 1.5 42.9-1.7 85.5-6.3 128.4-7 42.8-0.7 85.8 2.7 107.3 4.3l21.5 1.7v97h-21.5c-21.5 0-64.5 0-107.3 0-42.9 0-85.5 0-128.4 0-42.8 0-85.8 0-128.6 0-42.9 0-85.5 0-128.4 0-42.8 0-85.8 0-128.6 0-42.9 0-85.5 0-128.4 0-42.8 0-85.8 0-107.3 0h-21.5z"/>
	<path id="Layer" class="s5" d="m0 530l21.5 4.8c21.5 4.9 64.5 14.5 107.3 14.2 42.9-0.3 85.5-10.7 128.4-9.2 42.8 1.5 85.8 14.9 128.6 15.4 42.9 0.5 85.5-11.9 128.4-17.7 42.8-5.8 85.8-5.2 128.6-4.3 42.9 0.8 85.5 1.8 128.4 4.1 42.8 2.4 85.8 6 107.3 7.9l21.5 1.8v54h-21.5c-21.5 0-64.5 0-107.3 0-42.9 0-85.5 0-128.4 0-42.8 0-85.8 0-128.6 0-42.9 0-85.5 0-128.4 0-42.8 0-85.8 0-128.6 0-42.9 0-85.5 0-128.4 0-42.8 0-85.8 0-107.3 0h-21.5z"/>
</svg>