<svg id="visual" viewBox="0 0 900 600" width="900" height="600" xmlns="http://www.w3.org/2000/svg" xmlns:xlink="http://www.w3.org/1999/xlink" version="1.1"><rect x="0" y="0" width="900" height="600" fill="#fbfacb"></rect><path d="M0 389L21.5 394.8C43 400.7 86 412.3 128.8 407.2C171.7 402 214.3 380 257.2 372.2C300 364.3 343 370.7 385.8 384.5C428.7 398.3 471.3 419.7 514.2 419.5C557 419.3 600 397.7 642.8 389.2C685.7 380.7 728.3 385.3 771.2 389C814 392.7 857 395.3 878.5 396.7L900 398L900 601L878.5 601C857 601 814 601 771.2 601C728.3 601 685.7 601 642.8 601C600 601 557 601 514.2 601C471.3 601 428.7 601 385.8 601C343 601 300 601 257.2 601C214.3 601 171.7 601 128.8 601C86 601 43 601 21.5 601L0 601Z" fill="#debace"></path><path d="M0 436L21.5 429.2C43 422.3 86 408.7 128.8 408.5C171.7 408.3 214.3 421.7 257.2 425.7C300 429.7 343 424.3 385.8 429C428.7 433.7 471.3 448.3 514.2 453.2C557 458 600 453 642.8 444.2C685.7 435.3 728.3 422.7 771.2 416.5C814 410.3 857 410.7 878.5 410.8L900 411L900 601L878.5 601C857 601 814 601 771.2 601C728.3 601 685.7 601 642.8 601C600 601 557 601 514.2 601C471.3 601 428.7 601 385.8 601C343 601 300 601 257.2 601C214.3 601 171.7 601 128.8 601C86 601 43 601 21.5 601L0 601Z" fill="#caa3c0"></path><path d="M0 449L21.5 455C43 461 86 473 128.8 471.7C171.7 470.3 214.3 455.7 257.2 458.2C300 460.7 343 480.3 385.8 487.3C428.7 494.3 471.3 488.7 514.2 481.2C557 473.7 600 464.3 642.8 459.8C685.7 455.3 728.3 455.7 771.2 459.7C814 463.7 857 471.3 878.5 475.2L900 479L900 601L878.5 601C857 601 814 601 771.2 601C728.3 601 685.7 601 642.8 601C600 601 557 601 514.2 601C471.3 601 428.7 601 385.8 601C343 601 300 601 257.2 601C214.3 601 171.7 601 128.8 601C86 601 43 601 21.5 601L0 601Z" fill="#b38db3"></path><path d="M0 506L21.5 502.8C43 499.7 86 493.3 128.8 491.7C171.7 490 214.3 493 257.2 494.7C300 496.3 343 496.7 385.8 498C428.7 499.3 471.3 501.7 514.2 503.5C557 505.3 600 506.7 642.8 505C685.7 503.3 728.3 498.7 771.2 498C814 497.3 857 500.7 878.5 502.3L900 504L900 601L878.5 601C857 601 814 601 771.2 601C728.3 601 685.7 601 642.8 601C600 601 557 601 514.2 601C471.3 601 428.7 601 385.8 601C343 601 300 601 257.2 601C214.3 601 171.7 601 128.8 601C86 601 43 601 21.5 601L0 601Z" fill="#9a79a8"></path><path d="M0 530L21.5 534.8C43 539.7 86 549.3 128.8 549C171.7 548.7 214.3 538.3 257.2 539.8C300 541.3 343 554.7 385.8 555.2C428.7 555.7 471.3 543.3 514.2 537.5C557 531.7 600 532.3 642.8 533.2C685.7 534 728.3 535 771.2 537.3C814 539.7 857 543.3 878.5 545.2L900 547L900 601L878.5 601C857 601 814 601 771.2 601C728.3 601 685.7 601 642.8 601C600 601 557 601 514.2 601C471.3 601 428.7 601 385.8 601C343 601 300 601 257.2 601C214.3 601 171.7 601 128.8 601C86 601 43 601 21.5 601L0 601Z" fill="#7f669d"></path></svg>