<svg id="visual" viewBox="0 0 900 600" width="900" height="600" xmlns="http://www.w3.org/2000/svg" xmlns:xlink="http://www.w3.org/1999/xlink" version="1.1"><rect x="0" y="0" width="900" height="600" fill="#e682ff"></rect><path d="M0 397L21.5 391C43 385 86 373 128.8 365.7C171.7 358.3 214.3 355.7 257.2 373.3C300 391 343 429 385.8 440.3C428.7 451.7 471.3 436.3 514.2 423.2C557 410 600 399 642.8 407C685.7 415 728.3 442 771.2 434.8C814 427.7 857 386.3 878.5 365.7L900 345L900 601L878.5 601C857 601 814 601 771.2 601C728.3 601 685.7 601 642.8 601C600 601 557 601 514.2 601C471.3 601 428.7 601 385.8 601C343 601 300 601 257.2 601C214.3 601 171.7 601 128.8 601C86 601 43 601 21.5 601L0 601Z" fill="#FBFACD" stroke-linecap="round" stroke-linejoin="miter"></path></svg>